<!DOCTYPE svg PUBLIC "-//W3C//DTD SVG 1.1//EN" "http://www.w3.org/Graphics/SVG/1.1/DTD/svg11.dtd">

<!-- https://github.com/scarletkc/glitter -->
<svg height="256px" width="256px" version="1.1" id="Layer_1" xmlns="http://www.w3.org/2000/svg" xmlns:xlink="http://www.w3.org/1999/xlink" viewBox="0 0 505.00 505.00" xml:space="preserve" fill="#000000" transform="matrix(-1, 0, 0, 1, 0, 0)rotate(90)" stroke="#000000" stroke-width="0.005050000000000001">

<g id="SVGRepo_bgCarrier" stroke-width="0"/>

<g id="SVGRepo_tracerCarrier" stroke-linecap="round" stroke-linejoin="round" stroke="#CCCCCC" stroke-width="1.01"/>

<g id="SVGRepo_iconCarrier"> <path style="fill:#F4D03F;" d="M0,252.5C0,113,113,0,252.5,0C391.9,0,505,113,505,252.5S391.9,505,252.5,505C113,505,0,392,0,252.5z "/> <polygon style="fill:#ffffff;" points="270,150.3 191.8,72.1 113.6,150.3 148.9,150.3 161,290.4 222.7,290.4 234.8,150.3 "/> <polygon style="fill:#FFFFFF;" points="235,354.7 313.2,432.9 391.4,354.7 356.1,354.7 344,214.6 282.3,214.6 270.2,354.7 "/> </g>

</svg>